<?xml version="1.0" encoding="iso-8859-1"?>
<!-- Uploaded to: SVG Repo, www.svgrepo.com, Generator: SVG Repo Mixer Tools -->
<svg fill="#000000" height="800px" width="800px" version="1.1" id="Layer_1" xmlns="http://www.w3.org/2000/svg" xmlns:xlink="http://www.w3.org/1999/xlink" 
	 viewBox="0 0 512 512" xml:space="preserve">
<g transform="translate(1 1)">
	<g>
		<path d="M453.382,331.8c-9.387,0-17.92,3.413-24.747,9.387c-0.431,0.377-0.851,0.764-1.261,1.161l-23.987-13.476l25.248-6.459
			c4.267-0.853,7.68-5.973,5.973-10.24c-0.853-4.267-5.973-7.68-10.24-5.973l-41.044,11.401l-17.053-9.58l49.563-13.768
			c4.267-0.853,6.827-5.973,5.973-10.24s-5.973-6.827-10.24-5.973l-65.807,18.458l-18.602-10.451l50.276-23.368
			c3.413-1.707,5.12-4.267,5.12-7.68s-1.707-5.973-5.12-7.68l-52.733-24.51l19.073-11.444l66.94,16.327c0,0,0.853,0,1.707,0
			c3.413,0,7.68-2.56,8.533-5.12c1.707-4.267-1.707-9.387-5.973-10.24l-51.609-12.725l17.003-10.202l43.139,10.981
			c0,0,0.853,0,1.707,0c4.267,0,7.68-2.56,7.68-6.827c1.707-4.267-1.707-9.387-5.973-10.24l-25.869-6.324l26.924-16.154
			c6.06,5.477,14.077,8.825,22.839,8.825c18.773,0,34.133-15.36,34.133-34.133c0-18.773-15.36-34.133-34.133-34.133
			c-18.773,0-34.133,15.36-34.133,34.133c0,3.786,0.634,7.428,1.785,10.838l-27.153,16.141l6.595-26.979
			c1.707-4.267-1.707-9.387-5.973-10.24c-4.267-1.707-9.387,1.707-10.24,5.973l-10.165,43.006l-15.527,9.23l12.038-48.823
			c1.707-4.267-1.707-9.387-5.973-10.24c-4.267-1.707-9.387,1.707-10.24,5.973l-15.852,64.994l-17.945,10.667l4.784-52.621
			c0-3.413-1.707-6.827-4.267-8.533c-3.413-0.853-6.827-0.853-9.387,0.853l-46.08,33.12v-22.88l48.64-48.64
			c3.413-3.413,3.413-8.533,0-11.947s-8.533-3.413-11.947,0l-36.693,36.693v-18.773l31.573-31.573c3.413-3.413,3.413-8.533,0-11.947
			s-8.533-3.413-11.947,0l-19.627,19.627V66.179c14.679-3.814,25.6-17.216,25.6-33.046C288.689,14.36,273.329-1,254.555-1
			s-34.133,15.36-34.133,34.133c0,15.829,10.921,29.232,25.6,33.046v23.274l-19.627-19.627c-3.413-3.413-8.533-3.413-11.947,0
			s-3.413,8.533,0,11.947l31.573,31.573v18.773l-36.693-36.693c-3.413-3.413-8.533-3.413-11.947,0s-3.413,8.533,0,11.947
			l48.64,48.64v22.88l-46.08-33.12c-2.56-2.56-6.827-2.56-9.387-0.853c-2.56,1.707-4.267,5.12-4.267,8.533l5.057,55.623
			l-19.44-10.921l-18.043-64.328c-0.853-4.267-5.973-7.68-10.24-5.973c-4.267,0.853-6.827,5.973-5.973,10.24l13.434,48.364
			l-16.346-9.183l-11.594-41.74c-0.853-4.267-5.973-6.827-10.24-5.973s-6.827,5.973-5.973,10.24l7.536,26.085l-23.107-12.982
			c0.689-2.56,1.065-5.233,1.065-7.983c0-8.533-3.413-17.067-9.387-23.893s-14.507-11.093-23.893-11.093
			c-8.533,0-17.067,2.56-23.893,9.387c-6.827,5.973-11.093,14.507-11.093,23.893c0,8.533,2.56,17.067,8.533,23.893
			S47.195,178.2,56.582,178.2c0.853,0,0.853,0,1.707,0c8.533,0,17.067-3.413,23.04-9.387c0.32-0.28,0.629-0.572,0.938-0.863
			l24.191,13.591l-26.836,7.753c-4.267,0.853-6.827,5.973-5.973,10.24c1.707,3.413,5.12,5.973,8.533,5.973c0,0,0.853,0,1.707,0
			l42.706-12.654l17.261,9.697l-50.58,14.05c-4.267,0.853-6.827,5.973-5.973,10.24c1.707,3.413,5.12,5.973,8.533,5.973
			c0.853,0,1.707,0,1.707,0.853l67.833-19.026l16.576,9.312l-50.276,23.368c-3.413,1.707-5.12,4.267-5.12,7.68
			s1.707,5.973,5.12,7.68l52.026,24.568l-19.487,11.757L99.249,283.16c-4.267-1.707-8.533,1.707-10.24,5.973
			s1.707,9.387,5.973,10.24l48.714,12.012l-16.91,10.203L86.449,311.32c-4.267-1.707-9.387,1.707-10.24,5.973
			c-1.707,4.267,1.707,9.387,5.973,10.24l24.73,6.045l-25.8,15.566c-6.059-5.469-14.069-8.812-22.824-8.812
			c-18.773,0-34.133,15.36-34.133,34.133c0,18.773,15.36,34.133,34.133,34.133c18.773,0,34.133-15.36,34.133-34.133
			c0-3.4-0.51-6.685-1.447-9.79l26.839-16.435l-6.619,27.079c-1.707,4.267,1.707,9.387,5.973,10.24c0,0,0.853,0,1.707,0
			c4.267,0,7.68-2.56,9.387-5.12l10.667-45.128l15.633-9.573l-12.646,51.288c-1.707,4.267,1.707,9.387,5.973,10.24
			c0,0,0.853,0,1.707,0c4.267,0,7.68-3.413,8.533-6.827l16.311-66.874l17.502-10.717l-5.652,53.698c0,3.413,1.707,6.827,4.267,8.533
			c1.707,0.853,2.56,0.853,4.267,0.853s3.413-0.853,5.12-1.707l46.08-33.12v22.88l-48.64,48.64c-3.413,3.413-3.413,8.533,0,11.947
			s8.533,3.413,11.947,0l36.693-36.693v18.773l-31.573,31.573c-3.413,3.413-3.413,8.533,0,11.947c3.413,3.413,8.533,3.413,11.947,0
			l19.627-19.627v23.274c-14.679,3.814-25.6,17.216-25.6,33.046c0,18.773,15.36,34.133,34.133,34.133s34.133-15.36,34.133-34.133
			c0-15.83-10.921-29.232-25.6-33.046v-23.274l19.627,19.627c1.707,1.707,3.413,2.56,5.973,2.56s4.267-0.853,5.973-2.56
			c3.413-3.413,3.413-8.533,0-11.947l-31.573-31.573V377.88l36.693,36.693c1.707,1.707,3.413,2.56,5.973,2.56
			s4.267-0.853,5.973-2.56c3.413-3.413,3.413-8.533,0-11.947l-48.64-48.64v-22.88l46.08,33.12c2.56,2.56,6.827,2.56,9.387,0.853
			s4.267-5.12,4.267-8.533l-5.057-55.623l18.872,10.602l18.612,66.354c1.707,3.413,5.12,5.973,8.533,5.973
			c0.853,0,0.853-0.853,1.707-0.853c4.267-0.853,6.827-5.973,5.973-10.24l-13.715-49.375l15.335,8.615l12.033,43.319
			c1.707,3.413,5.12,5.973,8.533,5.973c0.853,0,1.707,0,2.56-0.853c4.267-0.853,6.827-5.973,5.973-10.24l-6.854-25.701
			l23.171,13.017c-0.619,2.433-0.957,4.964-0.957,7.564c-0.853,18.773,13.653,34.133,32.427,34.987h0.853
			c18.773,0,33.28-14.507,34.987-33.28C486.662,348.013,472.155,332.653,453.382,331.8z M353.542,254.147l-45.48,21.172
			l-20.532-11.535c0.752-2.806,1.159-5.749,1.159-8.783c0-3.376-0.504-6.639-1.428-9.725l20.632-12.379L353.542,254.147z
			 M254.555,272.067c-9.387,0-17.067-7.68-17.067-17.067c0-2.721,0.661-5.289,1.806-7.577c0.276-0.304,0.531-0.622,0.754-0.956
			c0.274-0.456,0.489-0.923,0.667-1.395c3.106-4.309,8.153-7.139,13.84-7.139c9.387,0,17.067,7.68,17.067,17.067
			c0,2.601-0.607,5.061-1.659,7.273c-0.324,0.392-0.63,0.809-0.901,1.26c-0.274,0.456-0.489,0.923-0.667,1.395
			C265.29,269.237,260.242,272.067,254.555,272.067z M450.822,118.467c9.387,0,17.067,7.68,17.067,17.067
			s-7.68,17.067-17.067,17.067c-5.111,0-9.705-2.288-12.839-5.878c-0.197-0.611-0.462-1.215-0.814-1.802
			c-0.425-0.567-0.927-1.082-1.478-1.543c-1.229-2.353-1.935-5.018-1.935-7.843C433.755,126.147,441.435,118.467,450.822,118.467z
			 M304.049,169.667l-4.592,47.454l-21.706,12.903c-4.091-3.803-9.105-6.626-14.662-8.069v-23.143L304.049,169.667z M237.489,33.133
			c0-9.387,7.68-17.067,17.067-17.067c9.387,0,17.067,7.68,17.067,17.067c0,9.387-7.68,17.067-17.067,17.067
			C245.169,50.2,237.489,42.52,237.489,33.133z M205.062,169.667l40.96,29.145v23.143c-6.02,1.564-11.405,4.742-15.667,9.037
			l-20.552-11.546L205.062,169.667z M69.382,156.867c-3.413,2.56-7.68,4.267-11.947,4.267s-8.533-1.707-11.947-5.973
			c-2.56-3.413-4.267-7.68-4.267-11.947s1.707-8.533,5.12-11.947c3.413-2.56,7.68-4.267,11.947-4.267c5.12,0,9.387,1.707,12.8,5.973
			c2.56,3.413,4.267,7.68,4.267,11.947c0,2.008-0.384,4.015-1.229,5.934c-0.492,0.522-0.944,1.101-1.331,1.746
			c-0.327,0.545-0.582,1.104-0.774,1.67C71.28,155.177,70.407,156.047,69.382,156.867z M154.715,255l45.465-20.806l21.4,12.023
			c-0.752,2.806-1.159,5.749-1.159,8.783c0,3.223,0.463,6.342,1.308,9.303l-20.874,12.594L154.715,255z M58.289,391.533
			c-9.387,0-17.067-7.68-17.067-17.067s7.68-17.067,17.067-17.067c5.111,0,9.705,2.288,12.839,5.878
			c0.197,0.611,0.462,1.215,0.814,1.802c0.433,0.649,0.976,1.242,1.586,1.767c1.158,2.299,1.827,4.882,1.827,7.62
			C75.355,383.853,67.675,391.533,58.289,391.533z M205.062,339.48l4.675-47.528l20.815-12.746c4.23,4.195,9.543,7.3,15.47,8.84
			v22.29L205.062,339.48z M271.622,476.867c0,9.387-7.68,17.067-17.067,17.067c-9.387,0-17.067-7.68-17.067-17.067
			s7.68-17.067,17.067-17.067C263.942,459.8,271.622,467.48,271.622,476.867z M304.049,339.48l-40.96-29.145v-22.29
			c6.02-1.564,11.405-4.742,15.667-9.037l20.638,11.594L304.049,339.48z M449.969,383c-9.387,0-16.213-8.533-15.36-17.92
			c0-4.267,1.707-8.533,5.12-11.947c3.413-2.56,7.68-4.267,11.947-4.267c9.387,0.853,16.213,8.533,16.213,17.92
			C467.035,376.173,459.355,383,449.969,383z"/>
	</g>
</g>
</svg>